<svg xmlns="http://www.w3.org/2000/svg" viewBox="0 0 1000 700">
  <!-- Background -->
  <rect width="1000" height="700" fill="#f5f5f5"/>
  
  <!-- Title -->
  <text x="500" y="30" font-family="Arial" font-size="24" text-anchor="middle" font-weight="bold">Casino Platform Observability Architecture</text>
  
  <!-- AWS Cloud Section -->
  <rect x="50" y="60" width="900" height="380" fill="#E8F4FA" stroke="#99C3E5" stroke-width="2" rx="10" ry="10"/>
  <text x="100" y="90" font-family="Arial" font-size="18" font-weight="bold">AWS Infrastructure</text>
  
  <!-- ECS Cluster -->
  <rect x="100" y="110" width="600" height="240" fill="#D1E7F5" stroke="#66A3D2" stroke-width="2" rx="8" ry="8"/>
  <text x="120" y="135" font-family="Arial" font-size="16" font-weight="bold">ECS Cluster</text>
  
  <!-- Microservices -->
  <!-- Vault -->
  <rect x="130" y="150" width="160" height="80" fill="#ffffff" stroke="#4682B4" stroke-width="2" rx="5" ry="5"/>
  <text x="210" y="185" font-family="Arial" font-size="14" text-anchor="middle" font-weight="bold">Vault</text>
  <text x="210" y="205" font-family="Arial" font-size="12" text-anchor="middle">(Payments)</text>
  
  <!-- Concierge -->
  <rect x="320" y="150" width="160" height="80" fill="#ffffff" stroke="#4682B4" stroke-width="2" rx="5" ry="5"/>
  <text x="400" y="185" font-family="Arial" font-size="14" text-anchor="middle" font-weight="bold">Concierge</text>
  <text x="400" y="205" font-family="Arial" font-size="12" text-anchor="middle">(Rewards)</text>
  
  <!-- Room Service -->
  <rect x="510" y="150" width="160" height="80" fill="#ffffff" stroke="#4682B4" stroke-width="2" rx="5" ry="5"/>
  <text x="590" y="185" font-family="Arial" font-size="14" text-anchor="middle" font-weight="bold">Room-Service</text>
  <text x="590" y="205" font-family="Arial" font-size="12" text-anchor="middle">(Socket.io)</text>
  
  <!-- Application LB -->
  <rect x="130" y="260" width="540" height="50" fill="#B0E3FF" stroke="#0085C8" stroke-width="2" rx="5" ry="5"/>
  <text x="400" y="290" font-family="Arial" font-size="14" text-anchor="middle" font-weight="bold">Application Load Balancer</text>
  
  <!-- MSK Kafka Cluster -->
  <rect x="730" y="150" width="180" height="80" fill="#FFE8CC" stroke="#FF9900" stroke-width="2" rx="5" ry="5"/>
  <text x="820" y="185" font-family="Arial" font-size="14" text-anchor="middle" font-weight="bold">MSK</text>
  <text x="820" y="205" font-family="Arial" font-size="12" text-anchor="middle">(Kafka Cluster)</text>
  
  <!-- S3 + CloudFront -->
  <rect x="730" y="260" width="180" height="80" fill="#E1F5EC" stroke="#47B881" stroke-width="2" rx="5" ry="5"/>
  <text x="820" y="290" font-family="Arial" font-size="14" text-anchor="middle" font-weight="bold">S3 + CloudFront</text>
  <text x="820" y="310" font-family="Arial" font-size="12" text-anchor="middle">(React SPA)</text>
  
  <!-- Connection arrows between services -->
  <!-- ALB to Microservices -->
  <line x1="210" y1="260" x2="210" y2="230" stroke="#666666" stroke-width="2" stroke-dasharray="5,3"/>
  <line x1="400" y1="260" x2="400" y2="230" stroke="#666666" stroke-width="2" stroke-dasharray="5,3"/>
  <line x1="590" y1="260" x2="590" y2="230" stroke="#666666" stroke-width="2" stroke-dasharray="5,3"/>
  
  <!-- Kafka to Concierge -->
  <line x1="480" y1="190" x2="730" y2="190" stroke="#FF9900" stroke-width="2" stroke-dasharray="5,3"/>
  <polygon points="723,185 730,190 723,195" fill="#FF9900"/>
  
  <!-- Public Internet -->
  <rect x="390" y="360" width="200" height="50" fill="#E0E0E0" stroke="#666666" stroke-width="2" rx="25" ry="25"/>
  <text x="490" y="390" font-family="Arial" font-size="14" text-anchor="middle" font-weight="bold">Public Internet</text>
  
  <!-- Connection to ALB -->
  <line x1="490" y1="360" x2="490" y2="310" stroke="#666666" stroke-width="2" marker-end="url(#arrowhead)"/>
  <defs>
    <marker id="arrowhead" markerWidth="10" markerHeight="7" refX="0" refY="3.5" orient="auto">
      <polygon points="0 0, 10 3.5, 0 7" fill="#666666"/>
    </marker>
  </defs>
  
  <!-- Connection to CloudFront -->
  <line x1="590" y1="385" x2="750" y2="320" stroke="#666666" stroke-width="2" marker-end="url(#arrowhead)"/>
  
  <!-- Observability Section -->
  <rect x="50" y="460" width="900" height="220" fill="#FFFDEB" stroke="#E6C700" stroke-width="2" rx="10" ry="10"/>
  <text x="100" y="490" font-family="Arial" font-size="18" font-weight="bold">Datadog Observability</text>
  
  <!-- Datadog Components -->
  <!-- APM -->
  <rect x="100" y="510" width="160" height="60" fill="#ffffff" stroke="#774AA4" stroke-width="2" rx="5" ry="5"/>
  <text x="180" y="545" font-family="Arial" font-size="14" text-anchor="middle" font-weight="bold">APM &amp; Tracing</text>
  
  <!-- Metrics -->
  <rect x="290" y="510" width="160" height="60" fill="#ffffff" stroke="#774AA4" stroke-width="2" rx="5" ry="5"/>
  <text x="370" y="545" font-family="Arial" font-size="14" text-anchor="middle" font-weight="bold">Metrics Collection</text>
  
  <!-- Logs -->
  <rect x="480" y="510" width="160" height="60" fill="#ffffff" stroke="#774AA4" stroke-width="2" rx="5" ry="5"/>
  <text x="560" y="545" font-family="Arial" font-size="14" text-anchor="middle" font-weight="bold">Log Management</text>
  
  <!-- Synthetic -->
  <rect x="670" y="510" width="160" height="60" fill="#ffffff" stroke="#774AA4" stroke-width="2" rx="5" ry="5"/>
  <text x="750" y="545" font-family="Arial" font-size="14" text-anchor="middle" font-weight="bold">Synthetic Tests</text>
  
  <!-- Alerts & Dashboards -->
  <rect x="230" y="600" width="220" height="60" fill="#EFDEFC" stroke="#774AA4" stroke-width="2" rx="5" ry="5"/>
  <text x="340" y="635" font-family="Arial" font-size="14" text-anchor="middle" font-weight="bold">Dashboards &amp; Alerting</text>
  
  <!-- Incident Response -->
  <rect x="480" y="600" width="220" height="60" fill="#EFDEFC" stroke="#774AA4" stroke-width="2" rx="5" ry="5"/>
  <text x="590" y="635" font-family="Arial" font-size="14" text-anchor="middle" font-weight="bold">Incident Response</text>
  
  <!-- Connections from Services to Datadog -->
  <line x1="210" y1="230" x2="180" y2="510" stroke="#774AA4" stroke-width="1.5" stroke-dasharray="5,3"/>
  <line x1="400" y1="230" x2="370" y2="510" stroke="#774AA4" stroke-width="1.5" stroke-dasharray="5,3"/>
  <line x1="590" y1="230" x2="560" y2="510" stroke="#774AA4" stroke-width="1.5" stroke-dasharray="5,3"/>
  <line x1="820" y1="230" x2="750" y2="510" stroke="#774AA4" stroke-width="1.5" stroke-dasharray="5,3"/>
  <line x1="820" y1="340" x2="750" y2="510" stroke="#774AA4" stroke-width="1.5" stroke-dasharray="5,3"/>
  
  <!-- Connections between Datadog components -->
  <line x1="180" y1="570" x2="280" y2="600" stroke="#774AA4" stroke-width="1.5"/>
  <line x1="370" y1="570" x2="340" y2="600" stroke="#774AA4" stroke-width="1.5"/>
  <line x1="560" y1="570" x2="500" y2="600" stroke="#774AA4" stroke-width="1.5"/>
  <line x1="750" y1="570" x2="650" y2="600" stroke="#774AA4" stroke-width="1.5"/>
  
  <!-- Critical Monitoring Focus Areas -->
  <rect x="50" y="30" width="180" height="20" fill="#FFE6E6" stroke="#FF5252" stroke-width="1" rx="10" ry="10"/>
  <text x="140" y="45" font-family="Arial" font-size="12" text-anchor="middle" fill="#CC0000">Critical Monitoring Areas</text>
  
  <!-- Deposit/Withdraw -->
  <rect x="260" y="320" width="70" height="20" fill="#FFE6E6" stroke="#FF5252" stroke-width="1" rx="10" ry="10"/>
  <text x="295" y="335" font-family="Arial" font-size="10" text-anchor="middle">Deposit/Withdraw</text>
  <line x1="295" y1="320" x2="210" y2="230" stroke="#FF5252" stroke-width="1" stroke-dasharray="3,2"/>
  
  <!-- Betting Process -->
  <rect x="150" y="350" width="70" height="20" fill="#FFE6E6" stroke="#FF5252" stroke-width="1" rx="10" ry="10"/>
  <text x="185" y="365" font-family="Arial" font-size="10" text-anchor="middle">Bet Processing</text>
  <line x1="185" y1="350" x2="190" y2="230" stroke="#FF5252" stroke-width="1" stroke-dasharray="3,2"/>
  
  <!-- System Abuse -->
  <rect x="500" y="320" width="70" height="20" fill="#FFE6E6" stroke="#FF5252" stroke-width="1" rx="10" ry="10"/>
  <text x="535" y="335" font-family="Arial" font-size="10" text-anchor="middle">System Abuse</text>
  <line x1="535" y1="320" x2="510" y2="230" stroke="#FF5252" stroke-width="1" stroke-dasharray="3,2"/>
  
  <!-- Rewards -->
  <rect x="650" y="350" width="70" height="20" fill="#FFE6E6" stroke="#FF5252" stroke-width="1" rx="10" ry="10"/>
  <text x="685" y="365" font-family="Arial" font-size="10" text-anchor="middle">Rewards</text>
  <line x1="685" y1="350" x2="400" y2="230" stroke="#FF5252" stroke-width="1" stroke-dasharray="3,2"/>
  
  <!-- Business User Groups -->
  <rect x="50" y="410" width="900" height="30" fill="#E8F4F6" stroke="#66A3D2" stroke-width="1" rx="5" ry="5"/>
  <text x="140" y="430" font-family="Arial" font-size="14" text-anchor="middle">Operations Team</text>
  <text x="350" y="430" font-family="Arial" font-size="14" text-anchor="middle">Security Team</text>
  <text x="550" y="430" font-family="Arial" font-size="14" text-anchor="middle">Finance Team</text>
  <text x="750" y="430" font-family="Arial" font-size="14" text-anchor="middle">Development Team</text>
</svg>
